<svg version="1.2" xmlns="http://www.w3.org/2000/svg" viewBox="0 0 2560 1440" width="2560" height="1440">
	<title>Boilgen</title>
	<style>
		.s0 { fill: #00dc37 } 
	</style>
	<path id="&gt;Boilgen_" class="s0" aria-label="&gt;Boilgen_"  d="m49 840l166.6-139.7v-50.9l-166.6-121.9v96l90.2 51.4-90.2 67.7zm528.5 24l36-36v-108l-36-36 36-36v-108l-36-36h-321.1v360zm-36-144v72h-213.2v-72zm0-144v72h-213.1v-72zm348.5 288l36-36v-288l-36-36h-192.5l-36 36v288l36 36zm-36-288v216h-120.5v-216zm120 288h72v-360h-72zm156 0h129.6v-72h-93.6v-288h-72v324zm215.6 0h226.5v-216h-130.5v72h58.5v72h-118.5v-216h190.5v-72h-226.5l-36 36v288zm312 0h226.5v-72h-190.5v-72h191v-72h-191v-72h190.5v-72h-226.5l-36 36v288zm468 0l72 0.4v-324.4l-36-36h-228v360h72v-288h120zm384.4 72v-72h-288v72z"/>
</svg>